<svg width="1703" height="195" viewBox="0 0 1703 195" fill="none" xmlns="http://www.w3.org/2000/svg">
<path d="M25 97.8528L92.8823 29.9706C102.255 20.598 117.451 20.598 126.823 29.9706V29.9706C136.196 39.3431 136.196 54.5391 126.823 63.9117L75.5581 115.177" stroke="black" stroke-width="12" stroke-linecap="round"/>
<path d="M76.2653 114.47L126.823 63.9117C136.196 54.5391 151.392 54.5391 160.765 63.9117L161.118 64.2652C170.491 73.6378 170.491 88.8338 161.118 98.2063L99.7248 159.6C96.6006 162.724 96.6006 167.789 99.7248 170.913L112.331 183.52" stroke="black" stroke-width="12" stroke-linecap="round"/>
<path d="M109.853 46.9411L59.6482 97.1457C50.2757 106.518 50.2757 121.714 59.6482 131.087V131.087C69.0208 140.459 84.2168 140.459 93.5894 131.087L143.794 80.8822" stroke="black" stroke-width="12" stroke-linecap="round"/>
<path d="M226.182 54.9091H246.818L274.455 122.364H275.545L303.182 54.9091H323.818V148H307.636V84.0455H306.773L281.045 147.727H268.955L243.227 83.9091H242.364V148H226.182V54.9091ZM371.909 149.364C365.091 149.364 359.182 147.864 354.182 144.864C349.182 141.864 345.303 137.667 342.545 132.273C339.818 126.879 338.455 120.576 338.455 113.364C338.455 106.152 339.818 99.8333 342.545 94.4091C345.303 88.9848 349.182 84.7727 354.182 81.7727C359.182 78.7727 365.091 77.2727 371.909 77.2727C378.727 77.2727 384.636 78.7727 389.636 81.7727C394.636 84.7727 398.5 88.9848 401.227 94.4091C403.985 99.8333 405.364 106.152 405.364 113.364C405.364 120.576 403.985 126.879 401.227 132.273C398.5 137.667 394.636 141.864 389.636 144.864C384.636 147.864 378.727 149.364 371.909 149.364ZM372 136.182C375.697 136.182 378.788 135.167 381.273 133.136C383.758 131.076 385.606 128.318 386.818 124.864C388.061 121.409 388.682 117.561 388.682 113.318C388.682 109.045 388.061 105.182 386.818 101.727C385.606 98.2424 383.758 95.4697 381.273 93.4091C378.788 91.3485 375.697 90.3182 372 90.3182C368.212 90.3182 365.061 91.3485 362.545 93.4091C360.061 95.4697 358.197 98.2424 356.955 101.727C355.742 105.182 355.136 109.045 355.136 113.318C355.136 117.561 355.742 121.409 356.955 124.864C358.197 128.318 360.061 131.076 362.545 133.136C365.061 135.167 368.212 136.182 372 136.182ZM445.239 149.227C439.754 149.227 434.845 147.818 430.511 145C426.178 142.182 422.754 138.091 420.239 132.727C417.723 127.364 416.466 120.848 416.466 113.182C416.466 105.424 417.739 98.8788 420.284 93.5455C422.86 88.1818 426.33 84.1364 430.693 81.4091C435.057 78.6515 439.92 77.2727 445.284 77.2727C449.375 77.2727 452.739 77.9697 455.375 79.3636C458.011 80.7273 460.102 82.3788 461.648 84.3182C463.193 86.2273 464.39 88.0303 465.239 89.7273H465.92V54.9091H482.42V148H466.239V137H465.239C464.39 138.697 463.163 140.5 461.557 142.409C459.951 144.288 457.83 145.894 455.193 147.227C452.557 148.561 449.239 149.227 445.239 149.227ZM449.83 135.727C453.314 135.727 456.284 134.788 458.739 132.909C461.193 131 463.057 128.348 464.33 124.955C465.602 121.561 466.239 117.606 466.239 113.091C466.239 108.576 465.602 104.652 464.33 101.318C463.087 97.9848 461.239 95.3939 458.784 93.5455C456.36 91.697 453.375 90.7727 449.83 90.7727C446.163 90.7727 443.102 91.7273 440.648 93.6364C438.193 95.5455 436.345 98.1818 435.102 101.545C433.86 104.909 433.239 108.758 433.239 113.091C433.239 117.455 433.86 121.348 435.102 124.773C436.375 128.167 438.239 130.848 440.693 132.818C443.178 134.758 446.223 135.727 449.83 135.727ZM530.864 149.364C523.864 149.364 517.818 147.909 512.727 145C507.667 142.061 503.773 137.909 501.045 132.545C498.318 127.152 496.955 120.803 496.955 113.5C496.955 106.318 498.318 100.015 501.045 94.5909C503.803 89.1364 507.652 84.8939 512.591 81.8636C517.53 78.803 523.333 77.2727 530 77.2727C534.303 77.2727 538.364 77.9697 542.182 79.3636C546.03 80.7273 549.424 82.8485 552.364 85.7273C555.333 88.6061 557.667 92.2727 559.364 96.7273C561.061 101.152 561.909 106.424 561.909 112.545V117.591H504.682V106.5H546.136C546.106 103.348 545.424 100.545 544.091 98.0909C542.758 95.6061 540.894 93.6515 538.5 92.2273C536.136 90.803 533.379 90.0909 530.227 90.0909C526.864 90.0909 523.909 90.9091 521.364 92.5455C518.818 94.1515 516.833 96.2727 515.409 98.9091C514.015 101.515 513.303 104.379 513.273 107.5V117.182C513.273 121.242 514.015 124.727 515.5 127.636C516.985 130.515 519.061 132.727 521.727 134.273C524.394 135.788 527.515 136.545 531.091 136.545C533.485 136.545 535.652 136.212 537.591 135.545C539.53 134.848 541.212 133.833 542.636 132.5C544.061 131.167 545.136 129.515 545.864 127.545L561.227 129.273C560.258 133.333 558.409 136.879 555.682 139.909C552.985 142.909 549.53 145.242 545.318 146.909C541.106 148.545 536.288 149.364 530.864 149.364ZM592.284 54.9091V148H575.83V54.9091H592.284ZM721.364 86.3182H704.364C703.879 83.5303 702.985 81.0606 701.682 78.9091C700.379 76.7273 698.758 74.8788 696.818 73.3636C694.879 71.8485 692.667 70.7121 690.182 69.9545C687.727 69.1667 685.076 68.7727 682.227 68.7727C677.167 68.7727 672.682 70.0455 668.773 72.5909C664.864 75.1061 661.803 78.803 659.591 83.6818C657.379 88.5303 656.273 94.4545 656.273 101.455C656.273 108.576 657.379 114.576 659.591 119.455C661.833 124.303 664.894 127.97 668.773 130.455C672.682 132.909 677.152 134.136 682.182 134.136C684.97 134.136 687.576 133.773 690 133.045C692.455 132.288 694.652 131.182 696.591 129.727C698.561 128.273 700.212 126.485 701.545 124.364C702.909 122.242 703.848 119.818 704.364 117.091L721.364 117.182C720.727 121.606 719.348 125.758 717.227 129.636C715.136 133.515 712.394 136.939 709 139.909C705.606 142.848 701.636 145.152 697.091 146.818C692.545 148.455 687.5 149.273 681.955 149.273C673.773 149.273 666.47 147.379 660.045 143.591C653.621 139.803 648.561 134.333 644.864 127.182C641.167 120.03 639.318 111.455 639.318 101.455C639.318 91.4242 641.182 82.8485 644.909 75.7273C648.636 68.5758 653.712 63.1061 660.136 59.3182C666.561 55.5303 673.833 53.6364 681.955 53.6364C687.136 53.6364 691.955 54.3636 696.409 55.8182C700.864 57.2727 704.833 59.4091 708.318 62.2273C711.803 65.0151 714.667 68.4394 716.909 72.5C719.182 76.5303 720.667 81.1364 721.364 86.3182ZM766.534 149.364C759.716 149.364 753.807 147.864 748.807 144.864C743.807 141.864 739.928 137.667 737.17 132.273C734.443 126.879 733.08 120.576 733.08 113.364C733.08 106.152 734.443 99.8333 737.17 94.4091C739.928 88.9848 743.807 84.7727 748.807 81.7727C753.807 78.7727 759.716 77.2727 766.534 77.2727C773.352 77.2727 779.261 78.7727 784.261 81.7727C789.261 84.7727 793.125 88.9848 795.852 94.4091C798.61 99.8333 799.989 106.152 799.989 113.364C799.989 120.576 798.61 126.879 795.852 132.273C793.125 137.667 789.261 141.864 784.261 144.864C779.261 147.864 773.352 149.364 766.534 149.364ZM766.625 136.182C770.322 136.182 773.413 135.167 775.898 133.136C778.383 131.076 780.231 128.318 781.443 124.864C782.686 121.409 783.307 117.561 783.307 113.318C783.307 109.045 782.686 105.182 781.443 101.727C780.231 98.2424 778.383 95.4697 775.898 93.4091C773.413 91.3485 770.322 90.3182 766.625 90.3182C762.837 90.3182 759.686 91.3485 757.17 93.4091C754.686 95.4697 752.822 98.2424 751.58 101.727C750.367 105.182 749.761 109.045 749.761 113.318C749.761 117.561 750.367 121.409 751.58 124.864C752.822 128.318 754.686 131.076 757.17 133.136C759.686 135.167 762.837 136.182 766.625 136.182ZM830.409 107.091V148H813.955V78.1818H829.682V90.0455H830.5C832.106 86.1364 834.667 83.0303 838.182 80.7273C841.727 78.4242 846.106 77.2727 851.318 77.2727C856.136 77.2727 860.333 78.303 863.909 80.3636C867.515 82.4242 870.303 85.4091 872.273 89.3182C874.273 93.2273 875.258 97.9697 875.227 103.545V148H858.773V106.091C858.773 101.424 857.561 97.7727 855.136 95.1364C852.742 92.5 849.424 91.1818 845.182 91.1818C842.303 91.1818 839.742 91.8182 837.5 93.0909C835.288 94.3333 833.545 96.1364 832.273 98.5C831.03 100.864 830.409 103.727 830.409 107.091ZM926.818 78.1818V90.9091H886.682V78.1818H926.818ZM896.591 61.4545H913.045V127C913.045 129.212 913.379 130.909 914.045 132.091C914.742 133.242 915.652 134.03 916.773 134.455C917.894 134.879 919.136 135.091 920.5 135.091C921.53 135.091 922.47 135.015 923.318 134.864C924.197 134.712 924.864 134.576 925.318 134.455L928.091 147.318C927.212 147.621 925.955 147.955 924.318 148.318C922.712 148.682 920.742 148.894 918.409 148.955C914.288 149.076 910.576 148.455 907.273 147.091C903.97 145.697 901.348 143.545 899.409 140.636C897.5 137.727 896.561 134.091 896.591 129.727V61.4545ZM970.739 149.364C963.739 149.364 957.693 147.909 952.602 145C947.542 142.061 943.648 137.909 940.92 132.545C938.193 127.152 936.83 120.803 936.83 113.5C936.83 106.318 938.193 100.015 940.92 94.5909C943.678 89.1364 947.527 84.8939 952.466 81.8636C957.405 78.803 963.208 77.2727 969.875 77.2727C974.178 77.2727 978.239 77.9697 982.057 79.3636C985.905 80.7273 989.299 82.8485 992.239 85.7273C995.208 88.6061 997.542 92.2727 999.239 96.7273C1000.94 101.152 1001.78 106.424 1001.78 112.545V117.591H944.557V106.5H986.011C985.981 103.348 985.299 100.545 983.966 98.0909C982.633 95.6061 980.769 93.6515 978.375 92.2273C976.011 90.803 973.254 90.0909 970.102 90.0909C966.739 90.0909 963.784 90.9091 961.239 92.5455C958.693 94.1515 956.708 96.2727 955.284 98.9091C953.89 101.515 953.178 104.379 953.148 107.5V117.182C953.148 121.242 953.89 124.727 955.375 127.636C956.86 130.515 958.936 132.727 961.602 134.273C964.269 135.788 967.39 136.545 970.966 136.545C973.36 136.545 975.527 136.212 977.466 135.545C979.405 134.848 981.087 133.833 982.511 132.5C983.936 131.167 985.011 129.515 985.739 127.545L1001.1 129.273C1000.13 133.333 998.284 136.879 995.557 139.909C992.86 142.909 989.405 145.242 985.193 146.909C980.981 148.545 976.163 149.364 970.739 149.364ZM1027.66 78.1818L1041.75 103.955L1056.07 78.1818H1073.48L1052.43 113.091L1073.84 148H1056.52L1041.75 122.864L1027.11 148H1009.66L1030.93 113.091L1010.2 78.1818H1027.66ZM1121.07 78.1818V90.9091H1080.93V78.1818H1121.07ZM1090.84 61.4545H1107.3V127C1107.3 129.212 1107.63 130.909 1108.3 132.091C1108.99 133.242 1109.9 134.03 1111.02 134.455C1112.14 134.879 1113.39 135.091 1114.75 135.091C1115.78 135.091 1116.72 135.015 1117.57 134.864C1118.45 134.712 1119.11 134.576 1119.57 134.455L1122.34 147.318C1121.46 147.621 1120.2 147.955 1118.57 148.318C1116.96 148.682 1114.99 148.894 1112.66 148.955C1108.54 149.076 1104.83 148.455 1101.52 147.091C1098.22 145.697 1095.6 143.545 1093.66 140.636C1091.75 137.727 1090.81 134.091 1090.84 129.727V61.4545ZM1167.31 148V54.9091H1202.22C1209.37 54.9091 1215.37 56.2424 1220.22 58.9091C1225.09 61.5758 1228.78 65.2424 1231.26 69.9091C1233.78 74.5455 1235.03 79.8182 1235.03 85.7273C1235.03 91.697 1233.78 97 1231.26 101.636C1228.75 106.273 1225.03 109.924 1220.12 112.591C1215.22 115.227 1209.17 116.545 1201.99 116.545H1178.85V102.682H1199.72C1203.9 102.682 1207.32 101.955 1209.99 100.5C1212.66 99.0455 1214.63 97.0455 1215.9 94.5C1217.2 91.9545 1217.85 89.0303 1217.85 85.7273C1217.85 82.4242 1217.2 79.5152 1215.9 77C1214.63 74.4848 1212.64 72.5303 1209.94 71.1364C1207.28 69.7121 1203.84 69 1199.62 69H1184.17V148H1167.31ZM1248.95 148V78.1818H1264.91V89.8182H1265.64C1266.91 85.7879 1269.09 82.6818 1272.18 80.5C1275.3 78.2879 1278.86 77.1818 1282.86 77.1818C1283.77 77.1818 1284.79 77.2273 1285.91 77.3182C1287.06 77.3788 1288.02 77.4848 1288.77 77.6364V92.7727C1288.08 92.5303 1286.97 92.3182 1285.45 92.1364C1283.97 91.9242 1282.53 91.8182 1281.14 91.8182C1278.14 91.8182 1275.44 92.4697 1273.05 93.7727C1270.68 95.0455 1268.82 96.8182 1267.45 99.0909C1266.09 101.364 1265.41 103.985 1265.41 106.955V148H1248.95ZM1327.28 149.364C1320.47 149.364 1314.56 147.864 1309.56 144.864C1304.56 141.864 1300.68 137.667 1297.92 132.273C1295.19 126.879 1293.83 120.576 1293.83 113.364C1293.83 106.152 1295.19 99.8333 1297.92 94.4091C1300.68 88.9848 1304.56 84.7727 1309.56 81.7727C1314.56 78.7727 1320.47 77.2727 1327.28 77.2727C1334.1 77.2727 1340.01 78.7727 1345.01 81.7727C1350.01 84.7727 1353.88 88.9848 1356.6 94.4091C1359.36 99.8333 1360.74 106.152 1360.74 113.364C1360.74 120.576 1359.36 126.879 1356.6 132.273C1353.88 137.667 1350.01 141.864 1345.01 144.864C1340.01 147.864 1334.1 149.364 1327.28 149.364ZM1327.38 136.182C1331.07 136.182 1334.16 135.167 1336.65 133.136C1339.13 131.076 1340.98 128.318 1342.19 124.864C1343.44 121.409 1344.06 117.561 1344.06 113.318C1344.06 109.045 1343.44 105.182 1342.19 101.727C1340.98 98.2424 1339.13 95.4697 1336.65 93.4091C1334.16 91.3485 1331.07 90.3182 1327.38 90.3182C1323.59 90.3182 1320.44 91.3485 1317.92 93.4091C1315.44 95.4697 1313.57 98.2424 1312.33 101.727C1311.12 105.182 1310.51 109.045 1310.51 113.318C1310.51 117.561 1311.12 121.409 1312.33 124.864C1313.57 128.318 1315.44 131.076 1317.92 133.136C1320.44 135.167 1323.59 136.182 1327.38 136.182ZM1409.57 78.1818V90.9091H1369.43V78.1818H1409.57ZM1379.34 61.4545H1395.8V127C1395.8 129.212 1396.13 130.909 1396.8 132.091C1397.49 133.242 1398.4 134.03 1399.52 134.455C1400.64 134.879 1401.89 135.091 1403.25 135.091C1404.28 135.091 1405.22 135.015 1406.07 134.864C1406.95 134.712 1407.61 134.576 1408.07 134.455L1410.84 147.318C1409.96 147.621 1408.7 147.955 1407.07 148.318C1405.46 148.682 1403.49 148.894 1401.16 148.955C1397.04 149.076 1393.33 148.455 1390.02 147.091C1386.72 145.697 1384.1 143.545 1382.16 140.636C1380.25 137.727 1379.31 134.091 1379.34 129.727V61.4545ZM1453.03 149.364C1446.22 149.364 1440.31 147.864 1435.31 144.864C1430.31 141.864 1426.43 137.667 1423.67 132.273C1420.94 126.879 1419.58 120.576 1419.58 113.364C1419.58 106.152 1420.94 99.8333 1423.67 94.4091C1426.43 88.9848 1430.31 84.7727 1435.31 81.7727C1440.31 78.7727 1446.22 77.2727 1453.03 77.2727C1459.85 77.2727 1465.76 78.7727 1470.76 81.7727C1475.76 84.7727 1479.63 88.9848 1482.35 94.4091C1485.11 99.8333 1486.49 106.152 1486.49 113.364C1486.49 120.576 1485.11 126.879 1482.35 132.273C1479.63 137.667 1475.76 141.864 1470.76 144.864C1465.76 147.864 1459.85 149.364 1453.03 149.364ZM1453.12 136.182C1456.82 136.182 1459.91 135.167 1462.4 133.136C1464.88 131.076 1466.73 128.318 1467.94 124.864C1469.19 121.409 1469.81 117.561 1469.81 113.318C1469.81 109.045 1469.19 105.182 1467.94 101.727C1466.73 98.2424 1464.88 95.4697 1462.4 93.4091C1459.91 91.3485 1456.82 90.3182 1453.12 90.3182C1449.34 90.3182 1446.19 91.3485 1443.67 93.4091C1441.19 95.4697 1439.32 98.2424 1438.08 101.727C1436.87 105.182 1436.26 109.045 1436.26 113.318C1436.26 117.561 1436.87 121.409 1438.08 124.864C1439.32 128.318 1441.19 131.076 1443.67 133.136C1446.19 135.167 1449.34 136.182 1453.12 136.182ZM1530.91 149.364C1523.94 149.364 1517.95 147.833 1512.95 144.773C1507.98 141.712 1504.15 137.485 1501.45 132.091C1498.79 126.667 1497.45 120.424 1497.45 113.364C1497.45 106.273 1498.82 100.015 1501.55 94.5909C1504.27 89.1364 1508.12 84.8939 1513.09 81.8636C1518.09 78.803 1524 77.2727 1530.82 77.2727C1536.48 77.2727 1541.5 78.3182 1545.86 80.4091C1550.26 82.4697 1553.76 85.3939 1556.36 89.1818C1558.97 92.9394 1560.45 97.3333 1560.82 102.364H1545.09C1544.45 99 1542.94 96.197 1540.55 93.9545C1538.18 91.6818 1535.02 90.5455 1531.05 90.5455C1527.68 90.5455 1524.73 91.4545 1522.18 93.2727C1519.64 95.0606 1517.65 97.6364 1516.23 101C1514.83 104.364 1514.14 108.394 1514.14 113.091C1514.14 117.848 1514.83 121.939 1516.23 125.364C1517.62 128.758 1519.58 131.379 1522.09 133.227C1524.64 135.045 1527.62 135.955 1531.05 135.955C1533.47 135.955 1535.64 135.5 1537.55 134.591C1539.48 133.652 1541.11 132.303 1542.41 130.545C1543.71 128.788 1544.61 126.652 1545.09 124.136H1560.82C1560.42 129.076 1558.97 133.455 1556.45 137.273C1553.94 141.061 1550.52 144.03 1546.18 146.182C1541.85 148.303 1536.76 149.364 1530.91 149.364ZM1604.78 149.364C1597.97 149.364 1592.06 147.864 1587.06 144.864C1582.06 141.864 1578.18 137.667 1575.42 132.273C1572.69 126.879 1571.33 120.576 1571.33 113.364C1571.33 106.152 1572.69 99.8333 1575.42 94.4091C1578.18 88.9848 1582.06 84.7727 1587.06 81.7727C1592.06 78.7727 1597.97 77.2727 1604.78 77.2727C1611.6 77.2727 1617.51 78.7727 1622.51 81.7727C1627.51 84.7727 1631.38 88.9848 1634.1 94.4091C1636.86 99.8333 1638.24 106.152 1638.24 113.364C1638.24 120.576 1636.86 126.879 1634.1 132.273C1631.38 137.667 1627.51 141.864 1622.51 144.864C1617.51 147.864 1611.6 149.364 1604.78 149.364ZM1604.88 136.182C1608.57 136.182 1611.66 135.167 1614.15 133.136C1616.63 131.076 1618.48 128.318 1619.69 124.864C1620.94 121.409 1621.56 117.561 1621.56 113.318C1621.56 109.045 1620.94 105.182 1619.69 101.727C1618.48 98.2424 1616.63 95.4697 1614.15 93.4091C1611.66 91.3485 1608.57 90.3182 1604.88 90.3182C1601.09 90.3182 1597.94 91.3485 1595.42 93.4091C1592.94 95.4697 1591.07 98.2424 1589.83 101.727C1588.62 105.182 1588.01 109.045 1588.01 113.318C1588.01 117.561 1588.62 121.409 1589.83 124.864C1591.07 128.318 1592.94 131.076 1595.42 133.136C1597.94 135.167 1601.09 136.182 1604.88 136.182ZM1668.66 54.9091V148H1652.2V54.9091H1668.66Z" fill="black"/>
</svg>
